<?xml version="1.0" encoding="utf-8"?>
<!-- Generator: Adobe Illustrator 22.1.0, SVG Export Plug-In . SVG Version: 6.00 Build 0)  -->
<svg version="1.1" id="图层_1" xmlns="http://www.w3.org/2000/svg" xmlns:xlink="http://www.w3.org/1999/xlink" x="0px" y="0px"
	 viewBox="0 0 30 30" style="enable-background:new 0 0 30 30;" xml:space="preserve">
<style type="text/css">
	.st0{fill:#EB6054;}
</style>
<g>
	<path class="st0" d="M7.5,2l0,2c2.3,0,4.5,1.7,5.7,4.5l1.8,4.3l1.8-4.3c1.2-2.7,3.3-4.4,5.7-4.4c2.7,0,5.4,2.2,5.5,7.1
		c0,3.3-2.3,5-5.8,7.1c-0.7,0.5-1.5,0.9-2.2,1.4c-1.7,1.2-3.6,2.9-5,4.6c-1.3-1.5-3.1-3.2-5.2-4.6c-0.6-0.4-1.2-0.7-1.8-1.1
		C4.4,16.4,2,14.7,2,11.2C2,6.3,4.9,4,7.5,4L7.5,2 M7.5,2C3.7,2,0,5.2,0,11.2c0,5.7,5.3,7.9,8.8,10.2c3.4,2.2,5.9,5.3,6.2,6.6
		c0.3-1.3,3-4.4,6.2-6.6c3.5-2.4,8.8-4.4,8.8-10.2c0-5.9-3.7-9.1-7.5-9.1c-2.9,0-5.9,1.8-7.5,5.6C13.3,3.8,10.4,2,7.5,2L7.5,2z"/>
</g>
</svg>
